<svg width="20" height="20" viewBox="0 0 20 20" fill="none" xmlns="http://www.w3.org/2000/svg">
<path d="M2.0835 7.9165H11.2502" stroke="#F7FBFF" stroke-width="1.5" stroke-linecap="round" stroke-linejoin="round"/>
<path d="M14.5835 7.9165H17.9168" stroke="#F7FBFF" stroke-width="1.5" stroke-linecap="round" stroke-linejoin="round"/>
<path d="M7.91675 17.9165L7.91675 7.9165" stroke="#F7FBFF" stroke-width="1.5"/>
<path d="M7.91675 5.41634V2.08301" stroke="#F7FBFF" stroke-width="1.5" stroke-linecap="round" stroke-linejoin="round"/>
<path d="M14.1668 14.1663C12.5002 14.1663 10.8335 15.5183 10.8335 17.9163H8.75016C5.60747 17.9163 4.03612 17.9163 3.05981 16.94C2.0835 15.9637 2.0835 14.3924 2.0835 11.2497V8.74967C2.0835 5.60698 2.0835 4.03563 3.05981 3.05932C4.03612 2.08301 5.60747 2.08301 8.75016 2.08301H11.2502C14.3929 2.08301 15.9642 2.08301 16.9405 3.05932C17.9168 4.03563 17.9168 5.60698 17.9168 8.74967V14.869C17.9168 16.552 16.5525 17.9163 14.8695 17.9163" stroke="#F7FBFF" stroke-width="1.5" stroke-linecap="round" stroke-linejoin="round"/>
</svg>
